<?xml version="1.0" encoding="UTF-8"?>
<svg width="121px" height="29px" viewBox="0 0 121 29" version="1.1" xmlns="http://www.w3.org/2000/svg" xmlns:xlink="http://www.w3.org/1999/xlink">
    <!-- Generator: Sketch 51.3 (57544) - http://www.bohemiancoding.com/sketch -->
    <title>logo</title>
    <desc>Created with Sketch.</desc>
    <defs>
        <path d="M22.44,0 L18.2,28.48 L14.36,28.48 L11.24,10 L11.16,10 L8.08,28.48 L4.24,28.48 L0,0 L4.32,0 L6.36,18.08 L6.44,18.08 L9.64,0 L12.76,0 L16.08,18.52 L16.16,18.52 L18.12,0 L22.44,0 Z M24.76,28.48 L24.76,8.2 L28.84,8.2 L28.84,28.48 L24.76,28.48 Z M24.76,4.08 L24.76,0 L28.84,0 L28.84,4.08 L24.76,4.08 Z M32.2,28.48 L32.2,8.2 L36.28,8.2 L36.28,10.16 L36.36,10.16 C36.7866688,9.5199968 37.299997,8.9933354 37.9,8.58 C38.500003,8.1666646 39.266662,7.96 40.2,7.96 C40.7066692,7.96 41.2133308,8.0466658 41.72,8.22 C42.2266692,8.3933342 42.679998,8.679998 43.08,9.08 C43.480002,9.480002 43.7999988,9.9933302 44.04,10.62 C44.2800012,11.2466698 44.4,12.0133288 44.4,12.92 L44.4,28.48 L40.32,28.48 L40.32,14.44 C40.32,13.6933296 40.1466684,13.1066688 39.8,12.68 C39.4533316,12.2533312 38.9600032,12.04 38.32,12.04 C37.5466628,12.04 37.0133348,12.2799976 36.72,12.76 C36.4266652,13.2400024 36.28,13.9333288 36.28,14.84 L36.28,28.48 L32.2,28.48 Z M52.08,22.64 C52.08,23.2800032 52.2599982,23.7733316 52.62,24.12 C52.9800018,24.4666684 53.4666636,24.64 54.08,24.64 C54.8533372,24.64 55.3666654,24.4133356 55.62,23.96 C55.8733346,23.5066644 56.0266664,23.0533356 56.08,22.6 L60.16,22.6 C60.16,24.3866756 59.6133388,25.8266612 58.52,26.92 C57.986664,27.4800028 57.3466704,27.9199984 56.6,28.24 C55.8533296,28.5600016 55.013338,28.72 54.08,28.72 C52.7999936,28.72 51.7133378,28.453336 50.82,27.92 C49.9266622,27.386664 49.2400024,26.6800044 48.76,25.8 C48.4666652,25.266664 48.2666672,24.6533368 48.16,23.96 C48.0533328,23.2666632 48,22.5066708 48,21.68 L48,15 C48,14.1733292 48.0533328,13.4133368 48.16,12.72 C48.2666672,12.0266632 48.4666652,11.413336 48.76,10.88 C49.2400024,9.9999956 49.9266622,9.293336 50.82,8.76 C51.7133378,8.226664 52.7999936,7.96 54.08,7.96 C55.013338,7.96 55.8599962,8.1199984 56.62,8.44 C57.3800038,8.7600016 58.026664,9.1999972 58.56,9.76 C59.626672,10.960006 60.16,12.5199904 60.16,14.44 L56.08,14.44 C56.08,13.6133292 55.9000018,13.0066686 55.54,12.62 C55.1799982,12.2333314 54.6933364,12.04 54.08,12.04 C53.4666636,12.04 52.9800018,12.2333314 52.62,12.62 C52.2599982,13.0066686 52.08,13.5866628 52.08,14.36 L52.08,22.64 Z M62.2,15 C62.2,14.1733292 62.2533328,13.4133368 62.36,12.72 C62.4666672,12.0266632 62.6666652,11.413336 62.96,10.88 C63.4400024,9.9999956 64.1266622,9.293336 65.02,8.76 C65.9133378,8.226664 66.9999936,7.96 68.28,7.96 C69.5600064,7.96 70.6466622,8.226664 71.54,8.76 C72.4333378,9.293336 73.1199976,9.9999956 73.6,10.88 C73.8933348,11.413336 74.0933328,12.0266632 74.2,12.72 C74.3066672,13.4133368 74.36,14.1733292 74.36,15 L74.36,21.68 C74.36,22.5066708 74.3066672,23.2666632 74.2,23.96 C74.0933328,24.6533368 73.8933348,25.266664 73.6,25.8 C73.1199976,26.6800044 72.4333378,27.386664 71.54,27.92 C70.6466622,28.453336 69.5600064,28.72 68.28,28.72 C66.9999936,28.72 65.9133378,28.453336 65.02,27.92 C64.1266622,27.386664 63.4400024,26.6800044 62.96,25.8 C62.6666652,25.266664 62.4666672,24.6533368 62.36,23.96 C62.2533328,23.2666632 62.2,22.5066708 62.2,21.68 L62.2,15 Z M66.28,22.32 C66.28,23.0933372 66.4599982,23.6733314 66.82,24.06 C67.1800018,24.4466686 67.6666636,24.64 68.28,24.64 C68.8933364,24.64 69.3799982,24.4466686 69.74,24.06 C70.1000018,23.6733314 70.28,23.0933372 70.28,22.32 L70.28,14.36 C70.28,13.5866628 70.1000018,13.0066686 69.74,12.62 C69.3799982,12.2333314 68.8933364,12.04 68.28,12.04 C67.6666636,12.04 67.1800018,12.2333314 66.82,12.62 C66.4599982,13.0066686 66.28,13.5866628 66.28,14.36 L66.28,22.32 Z M89.56,8.2 L84.28,28.48 L80.68,28.48 L75.4,8.2 L79.72,8.2 L82.44,21.16 L82.52,21.16 L85.24,8.2 L89.56,8.2 Z M91.44,28.48 L91.44,0 L103.6,0 L103.6,3.84 L95.52,3.84 L95.52,12.2 L102.56,12.2 L102.56,16.04 L95.52,16.04 L95.52,24.4 L103.6,24.4 L103.6,28.48 L91.44,28.48 Z M110.32,3.84 L110.32,12.72 L112.64,12.72 C113.360004,12.72 113.933331,12.620001 114.36,12.42 C114.786669,12.219999 115.119999,11.9333352 115.36,11.56 C115.573334,11.1866648 115.72,10.7266694 115.8,10.18 C115.88,9.6333306 115.92,9.0000036 115.92,8.28 C115.92,7.5599964 115.88,6.9266694 115.8,6.38 C115.72,5.8333306 115.560001,5.360002 115.32,4.96 C114.813331,4.2133296 113.85334,3.84 112.44,3.84 L110.32,3.84 Z M106.24,28.48 L106.24,0 L112.8,0 C117.600024,0 120,2.7866388 120,8.36 C120,10.0400084 119.740003,11.4666608 119.22,12.64 C118.699997,13.8133392 117.786673,14.7599964 116.48,15.48 L120.88,28.48 L116.56,28.48 L112.76,16.32 L110.32,16.32 L110.32,28.48 L106.24,28.48 Z" id="path-1"></path>
    </defs>
    <g id="Page-1" stroke="none" stroke-width="1" fill="none" fill-rule="evenodd">
        <g id="logo" fill="#FFFFFF">
            <g id="WincovER">
                <use xlink:href="#path-1"></use>
                <use xlink:href="#path-1"></use>
            </g>
        </g>
    </g>
</svg>